<svg viewBox="0 0 11 10" xmlns="http://www.w3.org/2000/svg">
  <path d="M 0 2 L 1 2 L 1 5 L 0 5 Z M 1 5 L 2 5 L 2 6 L 1 6 Z M 2 6 L 3 6 L 3 7 L 2 7 Z M 3 7 L 4 7 L 4 8 L 3 8 Z M 4 8 L 5 8 L 5 9 L 4 9 Z M 5 9 L 6 9 L 6 10 L 5 10 Z M 6 8 L 7 8 L 7 9 L 6 9 Z M 7 7 L 8 7 L 8 8 L 7 8 Z M 8 6 L 9 6 L 9 7 L 8 7 Z M 9 5 L 10 5 L 10 6 L 9 6 Z M 11 5 L 10 5 L 10 2 L 11 2 Z M 9 1 L 10 1 L 10 2 L 9 2 Z M 9 0 L 9 1 L 7 1 L 7 0 Z M 6 1 L 7 1 L 7 2 L 6 2 Z M 5 2 L 6 2 L 6 3 L 5 3 Z M 4 1 L 5 1 L 5 2 L 4 2 Z M 4 0 L 4 1 L 2 1 L 2 0 Z M 1 1 L 2 1 L 2 2 L 1 2 Z" style="fill: inherit;"></path>
  <path d="M 10 2 L 10 5 L 9 5 L 9 6 L 8 6 L 8 7 L 7 7 L 7 8 L 6 8 L 6 9 L 5 9 L 5 8 L 4 8 L 4 7 L 3 7 L 3 6 L 2 6 L 2 5 L 1 5 L 1 2 L 2 2 L 2 1 L 4 1 L 4 2 L 5 2 L 5 3 L 6 3 L 6 2 L 7 2 L 7 1 L 9 1 L 9 2 Z" style="transparent;"></path>
</svg>