<svg viewBox="0 0 12 12" xmlns="http://www.w3.org/2000/svg">
  <g id="circle">
    <rect x="0" y="3" width="1" height="6" style="fill: inherit"></rect>
    <rect x="11" y="3" width="1" height="6" style="fill: inherit"></rect>
    <rect x="3" y="0" width="6" height="1" style="fill: inherit;"></rect>
    <rect x="3" y="11" width="6" height="1" style="fill: inherit;"></rect>
    <rect x="2" y="10" width="1" height="1" style="fill: inherit;"></rect>
    <rect x="1" y="9" width="1" height="1" style="fill: inherit;"></rect>
    <rect x="1" y="2" width="1" height="1" style="fill: inherit;"></rect>
    <rect x="2" y="1" width="1" height="1" style="fill: inherit;"></rect>
    <rect x="9" y="1" width="1" height="1" style="fill: inherit;"></rect>
    <rect x="10" y="2" width="1" height="1" style="fill: inherit;"></rect>
    <rect x="10" y="9" width="1" height="1" style="fill: inherit;"></rect>
    <rect x="9" y="10" width="1" height="1" style="fill: inherit;"></rect>
  </g>
  <path d="M 7 3 L 8 3 L 8 9 L 7 9 Z M 4 3 L 5 3 L 5 9 L 4 9 Z" style="fill: inherit"></path>
</svg>