<svg viewBox="0 0 10 11" xmlns="http://www.w3.org/2000/svg">
  <path d="M 4 6 L 4 5 L 3 5 L 3 0 L 0 0 L 0 11 L 3 11 L 3 6 L 4 6 Z M 2 1 L 2 10 L 1 10 L 1 1 L 2 1 Z M 4 5 L 5 5 L 5 4 L 4 4 L 4 5 Z M 4 7 L 5 7 L 5 6 L 4 6 L 4 7 Z M 5 8 L 6 8 L 6 7 L 5 7 L 5 8 Z M 5 4 L 6 4 L 6 3 L 5 3 L 5 4 Z M 6 3 L 7 3 L 7 2 L 6 2 L 6 3 Z M 6 9 L 7 9 L 7 8 L 6 8 L 6 9 Z M 7 2 L 8 2 L 8 1 L 7 1 L 7 2 Z M 7 10 L 8 10 L 8 9 L 7 9 L 7 10 Z M 8 1 L 9 1 L 9 10 L 8 10 L 8 11 L 10 11 L 10 0 L 8 0 L 8 1 Z" style="fill: inherit;"></path>
</svg>